# xmcd
#
# Track frame offsets:
#	182
#	16377
#	30555
#	44437
#	65572
#	83377
#	97775
#	115107
#	130765
#	143282
#
# Disc length: 2112 seconds
#
# Revision: 2
# Processed by: cddbd v1.5.2PL0 Copyright (c) Steve Scherf et al.
# Submitted via: EasyCDDAExtractor 15.3.0.1
#
DISCID=6d083e0a
DTITLE=Yuri - Un Corazon Herido
DYEAR=1986
DGENRE=Latin
TTITLE0=Un Corazon Herido
TTITLE1=Cuidate Bien
TTITLE2=Pesado
TTITLE3=Este Amor
TTITLE4=Es Ella Mas Que Yo
TTITLE5=Hoy Me He Vuelto A Enamorar
TTITLE6=No Habra
TTITLE7=Mañana
TTITLE8=Mama Dame
TTITLE9=Vivir Sin Ti
EXTD=
EXTT0=
EXTT1=
EXTT2=
EXTT3=
EXTT4=
EXTT5=
EXTT6=
EXTT7=
EXTT8=
EXTT9=
PLAYORDER=
